<svg width="24" height="24" viewBox="0 0 24 24" fill="none" xmlns="http://www.w3.org/2000/svg">
<path d="M7.25 15C7.80228 15 8.25 14.3284 8.25 13.5C8.25 12.6716 7.80228 12 7.25 12M7.25 15C6.69772 15 6.25 14.3284 6.25 13.5C6.25 12.6716 6.69772 12 7.25 12M7.25 15V12M16.775 15C17.3273 15 17.775 14.3284 17.775 13.5C17.775 12.6716 17.3273 12 16.775 12M16.775 15C16.2227 15 15.775 14.3284 15.775 13.5C15.775 12.6716 16.2227 12 16.775 12M16.775 15V12M12 12C12 15.5899 9.87335 18.5 7.25 18.5C4.62665 18.5 2.5 15.5899 2.5 12C2.5 8.41015 4.62665 5.5 7.25 5.5C9.87335 5.5 12 8.41015 12 12ZM21.5 12.25C21.5 15.7018 19.3734 18.5 16.75 18.5C14.1266 18.5 12 15.7018 12 12.25C12 8.79822 14.1266 6 16.75 6C19.3734 6 21.5 8.79822 21.5 12.25Z" stroke="#9B9B9B" stroke-width="1.5"/>
</svg>
