<svg width="24" height="24" viewBox="0 0 24 24" fill="none" xmlns="http://www.w3.org/2000/svg">
<path d="M20 2H4C2.89732 2 2 2.89732 2 4V20C2 21.1027 2.89732 22 4 22H20C21.1027 22 22 21.1027 22 20V4C22 2.89732 21.1027 2 20 2ZM18.8304 8.64286C18.7679 10.0491 17.7857 11.9777 15.8839 14.4196C13.9196 16.9732 12.2545 18.25 10.8973 18.25C10.0536 18.25 9.34375 17.4732 8.75893 15.9152C7.62054 11.75 7.13393 9.30804 6.19643 9.30804C6.08929 9.30804 5.70982 9.53571 5.0625 9.98661L4.38393 9.11161C6.04911 7.64732 7.63839 6.02232 8.63393 5.93304C9.75893 5.82589 10.4509 6.59375 10.7098 8.24107C11.6339 14.0982 12.0446 14.9821 13.7277 12.3304C14.3304 11.375 14.6563 10.6473 14.7009 10.1473C14.8571 8.66518 13.5446 8.76786 12.6562 9.14732C13.3661 6.82143 14.7232 5.69196 16.7277 5.75446C18.2143 5.79464 18.9152 6.75893 18.8304 8.64286Z" fill="black"/>
</svg>
